<svg width="20" height="21" viewBox="0 0 20 21" fill="none" xmlns="http://www.w3.org/2000/svg">
<path fill-rule="evenodd" clip-rule="evenodd" d="M1.32363 1.1926C1.84433 0.63209 2.68855 0.63209 3.20925 1.1926L10.2664 8.78933L17.3236 1.1926C17.8443 0.63209 18.6885 0.63209 19.2092 1.1926C19.7299 1.75311 19.7299 2.66187 19.2092 3.22238L12.1521 10.8191L19.2092 18.4158C19.7299 18.9763 19.7299 19.8851 19.2092 20.4456C18.6885 21.0061 17.8443 21.0061 17.3236 20.4456L10.2664 12.8489L3.20925 20.4456C2.68855 21.0061 1.84433 21.0061 1.32363 20.4456C0.802931 19.8851 0.802931 18.9763 1.32363 18.4158L8.38082 10.8191L1.32363 3.22238C0.802931 2.66187 0.802931 1.75311 1.32363 1.1926Z" fill="#3F3F55"/>
</svg>
